<?xml version="1.0"?>
<svg width="640" height="480" xmlns="http://www.w3.org/2000/svg" xmlns:svg="http://www.w3.org/2000/svg">
 <!-- Created with SVG-edit - https://github.com/SVG-Edit/svgedit-->
 <g class="layer">
  <title>Layer 1</title>
  <text fill="#000000" font-family="serif" font-size="24" id="svg_2" stroke="#000000" stroke-dasharray="null" stroke-linecap="null" stroke-linejoin="null" stroke-width="0" text-anchor="middle" x="50.5" xml:space="preserve" y="36.5">AFGD</text>
  <polygon cx="108.5" cy="22.5" fill="#000000" id="svg_3" orient="point" point="5" points="115.5,1.9744136333465576 121.50142669677734,19.239747047424316 139.77627563476562,19.612159729003906 125.21051025390625,30.655136108398438 130.5035629272461,48.150634765625 115.5,37.710235595703125 100.4964370727539,48.150634765625 105.78948974609375,30.655136108398438 91.22372436523438,19.612159729003906 109.49857330322266,19.239747047424316 115.5,1.9744136333465576 121.50142669677734,19.239747047424316 " r="25.525586" r2="10.210235" shape="star" stroke="#000000" stroke-width="0" strokeWidth="0" strokecolor="#000000"/>
  <polygon cx="108.5" cy="13.5" fill="#000000" id="svg_5" orient="point" point="5" points="108.5,13.5 108.5,13.5 108.5,13.5 108.5,13.5 108.5,13.5 108.5,13.5 108.5,13.5 108.5,13.5 108.5,13.5 108.5,13.5 108.5,13.5 108.5,13.5 " r="0" r2="0" shape="star" stroke="#000000" stroke-width="0" strokeWidth="0" strokecolor="#000000"/>
  <polygon cx="108.5" cy="22.5" fill="#000000" id="svg_7" orient="point" point="5" points="108.5,22.5 108.5,22.5 108.5,22.5 108.5,22.5 108.5,22.5 108.5,22.5 108.5,22.5 108.5,22.5 108.5,22.5 108.5,22.5 108.5,22.5 108.5,22.5 " r="0" r2="0" shape="star" stroke="#000000" stroke-width="0" strokeWidth="0" strokecolor="#000000"/>
  <polygon cx="108.5" cy="22.5" fill="#000000" id="svg_8" orient="point" point="5" points="108.5,22.5 108.5,22.5 108.5,22.5 108.5,22.5 108.5,22.5 108.5,22.5 108.5,22.5 108.5,22.5 108.5,22.5 108.5,22.5 108.5,22.5 108.5,22.5 " r="0" r2="0" shape="star" stroke="#000000" stroke-width="0" strokeWidth="0" strokecolor="#000000"/>
 </g>
</svg>